<svg xmlns="http://www.w3.org/2000/svg" viewBox="0 0 216 185"><defs><style>.cls-1{fill:#70b75c;opacity:0.5;}.cls-2{fill:#fff;}</style></defs><title>Plan de travail 8</title><g id="Calque_1" data-name="Calque 1"><rect class="cls-1" width="216" height="185"/><path class="cls-2" d="M46.06,121.81a4.06,4.06,0,0,0,3.6,4.32c2.45.43,31.12,2.45,31.12,2.45s-29.1-9.37-30.83-9.22S46.21,119.79,46.06,121.81Z"/><path class="cls-2" d="M58.21,130.85c-4.61,2.5-1.92,7.1,1.54,5.76s5-4.61,19.4-5.76C79.14,130.85,62.82,128.35,58.21,130.85Z"/><path class="cls-2" d="M166,119.5c-1.73-.14-30.83,9.22-30.83,9.22s28.67-2,31.12-2.45a4.06,4.06,0,0,0,3.6-4.32C169.79,119.93,167.77,119.65,166,119.5Z"/><path class="cls-2" d="M157.7,130.94c-4.61-2.49-20.94,0-20.94,0,14.41,1.15,15.95,4.42,19.4,5.76S162.31,133.44,157.7,130.94Z"/><path class="cls-2" d="M93,129.47H90.27v11.88h1.81v-4.69h1a1.94,1.94,0,0,0,1.87-.91,5.7,5.7,0,0,0,.5-2.68v-.25a5.1,5.1,0,0,0-.54-2.51A2,2,0,0,0,93,129.47Zm.62,3.58a5.41,5.41,0,0,1-.17,1.69.71.71,0,0,1-.75.44h-.62v-4.31h.63a.7.7,0,0,1,.72.45,4.56,4.56,0,0,1,.19,1.51Z"/><path class="cls-2" d="M103.44,129.47H101l-1.7,11.88h1.74l.26-2.12h1.92l.28,2.12h1.69Zm-1.91,8.31.73-6h0l.8,6Z"/><path class="cls-2" d="M115.08,138.9a11.58,11.58,0,0,0-.24-3,1.1,1.1,0,0,0-.86-.83,1.28,1.28,0,0,0,.85-.76,4.61,4.61,0,0,0,.23-1.65,8.64,8.64,0,0,0-.15-1.76,1.79,1.79,0,0,0-.6-1,2.17,2.17,0,0,0-1.39-.37h-3v11.88h1.81v-5.61l.58,0a.92.92,0,0,1,.76.27,2,2,0,0,1,.19,1q0,4.13.07,4.26h1.81A19.38,19.38,0,0,1,115.08,138.9Zm-1.81-6.41a7.66,7.66,0,0,1-.06,1.16.93.93,0,0,1-.23.53.72.72,0,0,1-.51.16h-.72v-3.48h.61c.39,0,.64.1.75.3a3.15,3.15,0,0,1,.16,1.26Z"/><polygon class="cls-2" points="125.68 129.47 123.81 129.47 122 134.94 122 129.47 120.19 129.47 120.19 141.35 122.01 141.35 122.01 135.8 123.92 141.35 125.83 141.35 123.71 135.33 125.68 129.47"/><path class="cls-2" d="M62.58,97.73c-3.34-1.36-5-1.21-5.42-1.11-4.43,1.4,3.51,8.91,6.45,11.51a24.22,24.22,0,0,0,6,3.19l-.68-.23c4.91,1.82,6.51-.28,9.89-2.95A7.76,7.76,0,0,0,80,106.84c-2.49-1.33-4.84-2.65-7-3.86A107.66,107.66,0,0,0,62.58,97.73Z"/><polygon class="cls-2" points="89.54 86.97 89.54 86.98 89.54 86.97 89.54 86.97"/><path class="cls-2" d="M165.87,85.93C101,60.84,49.52,86,49.52,86a32.15,32.15,0,0,0,0,27.5c65,24.77,116.3,0,116.3,0C173,99.52,165.87,85.93,165.87,85.93ZM97.23,82.67l0-.07,0-.12a2.71,2.71,0,0,1,2.9-2h0a3.48,3.48,0,0,1,1.94.87l0,.06c.8.87,1.18,2.57-.06,5.82.86.83,2.86,2.73,3.26,3,0,0,1.24,1.23-.19,3.21a32.13,32.13,0,0,0-4,12.46c0,.7.51,4,5.11,0-3.43-8.21,5.76-19.83,5.76-19.83,1.15-2.23,3.18.66,3.18.66s6.61-2.75,3.37,6.54a28.18,28.18,0,0,1-8.75,12.77,5.16,5.16,0,0,0,1.14,1.46l.06,0a2.8,2.8,0,0,0,2,.65h.22a5,5,0,0,0,.62-.08l.12,0a7,7,0,0,0,1.54-.54h0a9.14,9.14,0,0,0,2.68-2.18c-2.54-8.14,6.06-19,6.06-19,1.15-2.23,3.18.66,3.18.66s6.61-2.75,3.37,6.54a28.17,28.17,0,0,1-8.75,12.76,5.16,5.16,0,0,0,1.16,1.48c4,2.76,7-4.33,7-4.33s4.48-12.15,4-14.74c0,0-.41-1.48-2-.64a.7.7,0,0,1-.35-.73s3.53-4.82,6.41-1.37c0,0,1.61,1.45.23,4.94A31.61,31.61,0,0,0,142,87.1c.61-1,1.18-1,1.6-.9a2.23,2.23,0,0,1,1.16.8c.44.46.91,1.41.49,3.38,0,0-2.3,9.25-3.09,13.35-.08.5-.13,1.09-.15,1.57a9.43,9.43,0,0,0,.14,1.66c.25.92.72,1.74,1.69,1.43,0,0,.86-.47,2.27-3.24,0,0,.61-.21.58,1.55,0,0-1.55,4.36-4.43,4.32s-4.16-3.25-4.08-7.53,2.44-11,2.44-11a40.54,40.54,0,0,0-4.8,7.07c-.79,3-1.3,5.91-1,7.3a17.71,17.71,0,0,0,1.26,3.94l0,0a.92.92,0,0,1-.61.51h0a1,1,0,0,1-.45,0,4.15,4.15,0,0,1-2-.9,4.84,4.84,0,0,1-1.78-2.19c-6.22,5-10.59,1-10.59,1a9.53,9.53,0,0,1-1.29-1.6c-6.41,5.5-11,1.31-11,1.31-.23-.23-.44-.46-.63-.7-.55.29-4.09,2.07-6.74,2.07-2.88,0-3.51-4.08-2.93-6.87s4.35-12.62,4.35-12.62L101,89.73l-.22.43A34.38,34.38,0,0,1,90.35,103s-2.11.45-1.16-.28c0,0,9-8.29,9.66-14.7,0,0-2.39-2.94-1.61-5.33ZM66.5,86c1.08-.76,1.73.9,1.73.9s1.06,4.91,1.21,5.1l-2.83-3.59S65.42,86.71,66.5,86Zm-9.26.15c1.25-1.54,3.55-.38,3.55-.38C63.3,87.53,69,92.94,69,92.94A38.49,38.49,0,0,0,58,88.4S56,87.63,57.25,86.1Zm81,31.29c-22.16,5.4-40.93-1.65-55.22-9l-.34.57s-4.89,7.06-13.53,5.81S53.4,106.53,52.54,99.72s2.93-7,2.93-7c1.94-.71,13.2.75,27.17,9.9,1.49-2.78,3-6.12,4.27-9.12-1.42,2.11-3.69,5.36-4.56,5.89-1.29.79-3.6.72-5.76-1.3S76.74,89.8,80,84.47s6.34-2.63,6.34-2.63c2.23,1.4,1.41,4.78,1.41,4.78-1,1.54-2.12-.33-2.12-.33-2.15,1.1-4,6.28-4.73,8.34s.36,2.45.36,2.45c2.41.55,7.85-10.14,8.87-12.19a.66.66,0,0,0-.45-.05c-1.8.11-1-1.63-1-1.63C92.2,80.41,94,84.74,94,84.74c-1,5.36-5.66,14.32-8.7,19.71,15.17,10.73,34.63,11.88,43.94,11s19.49-4.23,25.48-13.36-2-11-2-11c-4.7-1.2-5.52,4.75-5.28,6.43s-.56.54-.56.54c-2.67-5.08,1.81-9.81,1.81-9.81,5.19-4.61,10.52-.86,12.53,3S166.05,110.62,138.25,117.39Z"/><path class="cls-2" d="M115.91,88.54c-5.21,6.8-6.71,11.35-6.72,14.35C121,88.49,115.91,88.54,115.91,88.54Z"/><path class="cls-2" d="M128.16,88.83c-5.2,6.79-6.71,11.35-6.72,14.35C133.23,88.78,128.16,88.83,128.16,88.83Z"/><path class="cls-2" d="M56.5,61.89V55.6c-4.27,0-4.27-3-4.27-3S51.65,49,54.73,49a2.51,2.51,0,0,1,2.64,3V68.8s-.24,3.46-2.88,3.46-2.83-3.31-2.83-3.31l0-6.77a7.64,7.64,0,0,1-4.71-4.27V72s.58,8.16,8.55,6.39,7-9.75,7-9.75.05-8.74,0-18.1-7.39-8.26-7.39-8.26-10.37,2-8.5,12.62C48.09,63.54,56.5,61.89,56.5,61.89Z"/><path class="cls-2" d="M70.24,43.93s2.21-1.54,3.31.86.77,5.86-2.59,7v7.25s3.19.34,3.47,2.5c.31,3,.89,11.91.89,11.91l5.11-1.14-.36-10s.09-4.87-3.32-7.31a14,14,0,0,0,2.21-13S77.25,37.26,73.45,37s-8.55,1.87-8.55,1.87v37l5.33-1.35Z"/><path class="cls-2" d="M100.36,69.81c7.93-.86,7.66-7.64,7.66-7.64V47.72l-8.36.1v6.94l3.32-.08v4.13s.24,4.52-2.74,4.52-2.83-4.47-2.83-4.47-.07-13.68,0-14.91.57-3.46,3-3.46S103,44.1,103,44.1h5.1c.06-6.26-.92-10.95-8.05-10.95s-8,8.71-8,8.71,0,4.18.07,16.71S100.36,69.81,100.36,69.81Z"/><polygon class="cls-2" points="89.01 70.73 89.01 34.14 83.58 34.88 83.61 71.5 89.01 70.73"/><polygon class="cls-2" points="116.76 69.74 116.76 33.23 111.36 32.98 111.38 69.5 116.76 69.74"/><polygon class="cls-2" points="125.19 54.57 129.43 70.97 134.85 71.83 134.85 35.42 129.41 34.52 129.41 49.97 125.09 33.96 119.67 33.4 119.67 69.86 125.19 70.44 125.19 54.57"/><polygon class="cls-2" points="147.28 58.08 148.12 63.55 146.83 63.28 145.24 69.43 149.03 70.22 149.7 75.05 155.97 76.85 151.34 39.16 145.94 37.79 137.09 72.25 143.11 73.47 147.28 58.08"/><polygon class="cls-2" points="168.43 75.72 163.75 73.88 163.75 43.17 158.36 41.27 158.36 77.62 168.43 81.3 168.43 75.72"/><path class="cls-2" d="M80,148.92a.54.54,0,0,0,.26-.33,2.06,2.06,0,0,0,.07-.62v-.1a1.29,1.29,0,0,0-.19-.77.84.84,0,0,0-.68-.23h-.81v4.46h.87a.75.75,0,0,0,.68-.29,1.82,1.82,0,0,0,.2-1V150Q80.41,149.09,80,148.92Zm-.82-1.61h.26a.49.49,0,0,1,.22,0c.1.05.15.23.15.53h0V148a2.8,2.8,0,0,1,0,.48.31.31,0,0,1-.09.2.36.36,0,0,1-.22.05h-.3Zm.7,2.76a1.88,1.88,0,0,1-.08.67.3.3,0,0,1-.3.17h-.32v-1.77h.35a.27.27,0,0,1,.28.17,1.79,1.79,0,0,1,.07.6Z"/><path class="cls-2" d="M81.51,146.88l-.68,4.46h.5l.12-.85h.81l.13.85h.49l-.74-4.46Zm0,3.18.32-2.36h0l.35,2.36Z"/><path class="cls-2" d="M84.2,148.59l-.12-.13a1.31,1.31,0,0,1-.19-.24.8.8,0,0,1-.08-.4.82.82,0,0,1,.08-.41.29.29,0,0,1,.27-.14.27.27,0,0,1,.17,0,.38.38,0,0,1,.11.19,2.39,2.39,0,0,1,0,.57v.3H85v-.26a3.79,3.79,0,0,0-.05-.68.7.7,0,0,0-.77-.62.74.74,0,0,0-.68.28,1.71,1.71,0,0,0-.13,1.15,1.82,1.82,0,0,0,.48.74l.29.29a1.22,1.22,0,0,1,.41.87c0,.15,0,.29,0,.42a.48.48,0,0,1-.09.27.32.32,0,0,1-.26.09.26.26,0,0,1-.26-.19,2.21,2.21,0,0,1-.07-.68v-.45h-.51v.46a2.66,2.66,0,0,0,.09.78.86.86,0,0,0,1.45.23,1.77,1.77,0,0,0,.18-.88,1.81,1.81,0,0,0-.55-1.28Z"/><polygon class="cls-2" points="86.14 149.27 86.9 149.27 86.9 148.84 86.14 148.84 86.14 147.31 86.95 147.31 86.95 146.88 85.61 146.88 85.61 151.33 86.96 151.33 86.96 150.9 86.14 150.9 86.14 149.27"/><polygon class="cls-2" points="90.22 148.62 90.27 149.91 89.23 146.88 88.84 146.88 88.84 151.33 89.33 151.33 89.33 149.4 89.29 148.28 90.29 151.33 90.68 151.33 90.68 146.88 90.22 146.88 90.22 148.62"/><path class="cls-2" d="M91.89,146.88l-.68,4.46h.5l.12-.85h.81l.13.85h.49l-.74-4.46Zm0,3.18.32-2.36h0l.35,2.36Z"/><path class="cls-2" d="M95,150.18c0,.09,0,.2,0,.34a.53.53,0,0,1-.09.32.31.31,0,0,1-.26.11.28.28,0,0,1-.25-.1.54.54,0,0,1-.08-.14,2,2,0,0,1,0-.53v-3.3h-.52v3.31a1.63,1.63,0,0,0,.2.91.77.77,0,0,0,.68.29.76.76,0,0,0,.68-.29,1.65,1.65,0,0,0,.2-.91v-3.31H95Z"/><polygon class="cls-2" points="95.89 147.31 96.38 147.31 96.38 151.33 96.9 151.33 96.9 147.31 97.36 147.31 97.36 146.88 95.89 146.88 95.89 147.31"/><rect class="cls-2" x="97.84" y="146.88" width="0.52" height="4.46"/><path class="cls-2" d="M100,146.82a.84.84,0,0,0-.63.22,1.52,1.52,0,0,0-.27,1v2a2,2,0,0,0,.19,1,.71.71,0,0,0,.6.33l.58.63.26-.24-.39-.45a.62.62,0,0,0,.32-.26,2,2,0,0,0,.2-1v-2a2.46,2.46,0,0,0-.1-.77A.72.72,0,0,0,100,146.82Zm.34,3.24a2.25,2.25,0,0,1-.07.69.31.31,0,0,1-.57,0,2.21,2.21,0,0,1-.07-.69v-2a1.58,1.58,0,0,1,.08-.6.29.29,0,0,1,.29-.18.27.27,0,0,1,.28.18,1.91,1.91,0,0,1,.07.61Z"/><path class="cls-2" d="M102.73,150.18c0,.09,0,.2,0,.34a.53.53,0,0,1-.09.32.31.31,0,0,1-.26.11.28.28,0,0,1-.25-.1.54.54,0,0,1-.08-.14,2,2,0,0,1,0-.53v-3.3h-.52v3.31a1.63,1.63,0,0,0,.2.91.77.77,0,0,0,.68.29.76.76,0,0,0,.68-.29,1.65,1.65,0,0,0,.2-.91v-3.31h-.52Z"/><polygon class="cls-2" points="104.48 149.27 105.25 149.27 105.25 148.84 104.48 148.84 104.48 147.31 105.29 147.31 105.29 146.88 103.96 146.88 103.96 151.33 105.3 151.33 105.3 150.9 104.48 150.9 104.48 149.27"/><path class="cls-2" d="M108.56,148.92a.54.54,0,0,0,.26-.33,2.09,2.09,0,0,0,.07-.62v-.1a1.3,1.3,0,0,0-.19-.77.84.84,0,0,0-.68-.23h-.81v4.46h.87a.75.75,0,0,0,.68-.29,1.83,1.83,0,0,0,.2-1V150Q109,149.09,108.56,148.92Zm-.81-1.61H108a.48.48,0,0,1,.22,0c.1.05.15.23.15.53h0V148a2.88,2.88,0,0,1,0,.48.31.31,0,0,1-.09.2.36.36,0,0,1-.22.05h-.3Zm.7,2.76a1.86,1.86,0,0,1-.08.67.29.29,0,0,1-.3.17h-.32v-1.77h.35a.27.27,0,0,1,.28.17,1.78,1.78,0,0,1,.07.6Z"/><polygon class="cls-2" points="110.12 149.27 110.88 149.27 110.88 148.84 110.12 148.84 110.12 147.31 110.93 147.31 110.93 146.88 109.59 146.88 109.59 151.33 110.94 151.33 110.94 150.9 110.12 150.9 110.12 149.27"/><path class="cls-2" d="M112.34,148.59l-.12-.13a1.31,1.31,0,0,1-.19-.24.8.8,0,0,1-.08-.4.82.82,0,0,1,.08-.41.3.3,0,0,1,.27-.14.27.27,0,0,1,.17,0,.38.38,0,0,1,.11.19,2.39,2.39,0,0,1,0,.57v.3h.5v-.26a3.78,3.78,0,0,0-.05-.68.7.7,0,0,0-.76-.62.75.75,0,0,0-.68.28,1.73,1.73,0,0,0-.13,1.15,1.82,1.82,0,0,0,.48.74l.29.29a1.22,1.22,0,0,1,.41.87c0,.15,0,.29,0,.42a.47.47,0,0,1-.09.27.32.32,0,0,1-.26.09.26.26,0,0,1-.26-.19,2.19,2.19,0,0,1-.07-.68v-.45h-.51v.46a2.66,2.66,0,0,0,.09.78.86.86,0,0,0,1.45.23,1.76,1.76,0,0,0,.18-.88,1.81,1.81,0,0,0-.55-1.28Z"/><path class="cls-2" d="M114.55,148.59l-.12-.13a1.31,1.31,0,0,1-.19-.24.79.79,0,0,1-.08-.4.81.81,0,0,1,.08-.41.29.29,0,0,1,.27-.14.27.27,0,0,1,.17,0,.4.4,0,0,1,.11.19,2.4,2.4,0,0,1,0,.57v.3h.5v-.26a3.78,3.78,0,0,0-.05-.68.7.7,0,0,0-.76-.62.74.74,0,0,0-.68.28,1.71,1.71,0,0,0-.13,1.15,1.81,1.81,0,0,0,.48.74l.29.29a1.22,1.22,0,0,1,.41.87c0,.15,0,.29,0,.42a.48.48,0,0,1-.09.27.33.33,0,0,1-.27.09.26.26,0,0,1-.26-.19,2.23,2.23,0,0,1-.07-.68v-.45h-.51v.46a2.66,2.66,0,0,0,.09.78.86.86,0,0,0,1.45.23,1.78,1.78,0,0,0,.18-.88,1.81,1.81,0,0,0-.55-1.28Z"/><rect class="cls-2" x="116" y="146.88" width="0.52" height="4.46"/><polygon class="cls-2" points="118.46 146.63 118.46 146.35 117.53 145.86 117.53 146.39 118.46 146.63"/><polygon class="cls-2" points="117.82 149.27 118.59 149.27 118.59 148.84 117.82 148.84 117.82 147.31 118.63 147.31 118.63 146.88 117.3 146.88 117.3 151.33 118.64 151.33 118.64 150.9 117.82 150.9 117.82 149.27"/><path class="cls-2" d="M120.95,149.63a1.24,1.24,0,0,0-.12-.47.34.34,0,0,0-.25-.18.47.47,0,0,0,.32-.3,1.6,1.6,0,0,0,.09-.58c0-.23,0-.4,0-.51a.85.85,0,0,0-.21-.56.83.83,0,0,0-.57-.16h-.93v4.46h.52v-2.15l.31,0a.44.44,0,0,1,.28.08c.06.05.09.24.09.55a11.81,11.81,0,0,0,0,1.5H121a3.54,3.54,0,0,1,0-.74Q121,150,120.95,149.63Zm-.49-1.63a3.19,3.19,0,0,1,0,.52.37.37,0,0,1-.1.22.35.35,0,0,1-.22.06h-.33v-1.5h.33a.4.4,0,0,1,.27.08q.09.08.09.6Z"/><polygon class="cls-2" points="122.19 149.27 122.95 149.27 122.95 148.84 122.19 148.84 122.19 147.31 123 147.31 123 146.88 121.66 146.88 121.66 151.33 123 151.33 123 150.9 122.19 150.9 122.19 149.27"/><path class="cls-2" d="M124.41,148.59l-.12-.13a1.32,1.32,0,0,1-.19-.24.8.8,0,0,1-.08-.4.82.82,0,0,1,.08-.41.29.29,0,0,1,.27-.14.27.27,0,0,1,.17,0,.38.38,0,0,1,.11.19,2.4,2.4,0,0,1,0,.57v.3h.5v-.26a3.78,3.78,0,0,0-.05-.68.7.7,0,0,0-.76-.62.75.75,0,0,0-.68.28,1.71,1.71,0,0,0-.13,1.15,1.81,1.81,0,0,0,.48.74l.29.29a1.22,1.22,0,0,1,.41.87c0,.15,0,.29,0,.42a.48.48,0,0,1-.08.27.33.33,0,0,1-.26.09.26.26,0,0,1-.26-.19,2.24,2.24,0,0,1-.07-.68v-.45h-.51v.46a2.66,2.66,0,0,0,.09.78.86.86,0,0,0,1.45.23,1.78,1.78,0,0,0,.18-.88,1.81,1.81,0,0,0-.55-1.28Z"/><path class="cls-2" d="M128.31,149q.45-.17.45-1a1.48,1.48,0,0,0-.21-.88.78.78,0,0,0-.67-.29.73.73,0,0,0-.65.28,1.58,1.58,0,0,0-.2.88v.11h.51V148a1.42,1.42,0,0,1,.08-.57.27.27,0,0,1,.25-.16.32.32,0,0,1,.27.14,1.13,1.13,0,0,1,.1.58v0c0,.4-.06.64-.19.72a.53.53,0,0,1-.28.06h-.14v.42h.15a.39.39,0,0,1,.37.2,1.56,1.56,0,0,1,.11.68,2,2,0,0,1-.08.67.3.3,0,0,1-.3.19.28.28,0,0,1-.29-.17,2.07,2.07,0,0,1-.06-.64v-.2H127v.2a1.8,1.8,0,0,0,.19.95.72.72,0,0,0,.66.3.77.77,0,0,0,.68-.31,1.73,1.73,0,0,0,.22-1Q128.77,149.2,128.31,149Z"/><path class="cls-2" d="M129.56,147.26a.89.89,0,0,1-.41.17v.36a.93.93,0,0,0,.31-.06.57.57,0,0,0,.24-.16v3.76h.52v-4.46h-.37A.9.9,0,0,1,129.56,147.26Z"/><path class="cls-2" d="M132,148.54a.65.65,0,0,0-.55.22v-.62a2.2,2.2,0,0,1,.07-.69.26.26,0,0,1,.26-.17.31.31,0,0,1,.27.11,1.78,1.78,0,0,1,.08.71v.08h.5V148a1.91,1.91,0,0,0-.17-.92.69.69,0,0,0-.64-.27.76.76,0,0,0-.68.3,1.9,1.9,0,0,0-.2,1V150a2.59,2.59,0,0,0,.11.83.77.77,0,0,0,.81.53.76.76,0,0,0,.7-.31,1.79,1.79,0,0,0,.19-.91v-.27a2.27,2.27,0,0,0-.17-1A.6.6,0,0,0,132,148.54Zm.22,1.68q0,.54-.15.65a.36.36,0,0,1-.23.06.31.31,0,0,1-.32-.19,1.71,1.71,0,0,1-.08-.63v-.94a.33.33,0,0,1,.15-.12.56.56,0,0,1,.26-.06.28.28,0,0,1,.29.19,2.27,2.27,0,0,1,.07.7Z"/><path class="cls-2" d="M134.27,148.54a.65.65,0,0,0-.55.22v-.62a2.2,2.2,0,0,1,.07-.69.26.26,0,0,1,.26-.17.31.31,0,0,1,.27.11,1.78,1.78,0,0,1,.08.71v.08h.5V148a1.91,1.91,0,0,0-.17-.92.69.69,0,0,0-.64-.27.76.76,0,0,0-.68.3,1.9,1.9,0,0,0-.2,1V150a2.59,2.59,0,0,0,.11.83.77.77,0,0,0,.81.53.76.76,0,0,0,.7-.31,1.79,1.79,0,0,0,.19-.91v-.27a2.25,2.25,0,0,0-.17-1A.6.6,0,0,0,134.27,148.54Zm.22,1.68q0,.54-.15.65a.36.36,0,0,1-.23.06.31.31,0,0,1-.32-.19,1.71,1.71,0,0,1-.08-.63v-.94a.33.33,0,0,1,.15-.12.56.56,0,0,1,.26-.06.28.28,0,0,1,.29.19,2.27,2.27,0,0,1,.07.7Z"/><path class="cls-2" d="M136.33,146.82a.78.78,0,0,0-.71.29,1.67,1.67,0,0,0-.19.89v2.13a1.92,1.92,0,0,0,.18.94,1,1,0,0,0,1.43,0,1.91,1.91,0,0,0,.18-.93V148a1.65,1.65,0,0,0-.19-.89A.79.79,0,0,0,136.33,146.82Zm.38,3.32v0c0,.4-.06.64-.17.72a.21.21,0,0,1-.1.05h-.15a.29.29,0,0,1-.18-.06q-.15-.12-.15-.72V148a1.41,1.41,0,0,1,.06-.49.31.31,0,0,1,.14-.18.4.4,0,0,1,.16,0h.12q.28,0,.28.7Z"/></g></svg>