<svg xmlns="http://www.w3.org/2000/svg" viewBox="0 0 144 144"><defs><style>.cls-1{fill:#fff;}</style></defs><title>Plan de travail 8</title><g id="Calque_1" data-name="Calque 1"><path class="cls-1" d="M0,106.06a4.72,4.72,0,0,0,4.18,5c2.85.5,36.17,2.85,36.17,2.85S6.54,103,4.53,103.22.18,103.72,0,106.06Z"/><path class="cls-1" d="M14.13,116.57c-5.36,2.9-2.23,8.26,1.79,6.69s5.8-5.36,22.55-6.69C38.46,116.57,19.49,113.67,14.13,116.57Z"/><path class="cls-1" d="M139.47,103.38c-2-.17-35.83,10.72-35.83,10.72s33.32-2.34,36.17-2.85a4.72,4.72,0,0,0,4.18-5C143.82,103.89,141.48,103.55,139.47,103.38Z"/><path class="cls-1" d="M129.77,116.68c-5.36-2.9-24.34,0-24.34,0,16.75,1.34,18.53,5.14,22.55,6.7S135.12,119.58,129.77,116.68Z"/><path class="cls-1" d="M54.56,115H51.39v13.81h2.1v-5.45h1.14a2.25,2.25,0,0,0,2.17-1.06,6.63,6.63,0,0,0,.59-3.12v-.29a5.93,5.93,0,0,0-.62-2.92A2.36,2.36,0,0,0,54.56,115Zm.72,4.16a6.29,6.29,0,0,1-.2,2,.83.83,0,0,1-.87.51h-.72v-5h.74a.81.81,0,0,1,.84.53,5.3,5.3,0,0,1,.22,1.75Z"/><path class="cls-1" d="M66.69,115H63.92l-2,13.81h2l.3-2.46H66.5l.33,2.46h2Zm-2.22,9.66.85-6.94h0l.93,6.94Z"/><path class="cls-1" d="M80.23,125.93a13.46,13.46,0,0,0-.28-3.5,1.28,1.28,0,0,0-1-1,1.49,1.49,0,0,0,1-.89,5.36,5.36,0,0,0,.27-1.92,10,10,0,0,0-.17-2,2.08,2.08,0,0,0-.7-1.22,2.52,2.52,0,0,0-1.62-.44H74.24v13.81h2.1v-6.52l.68,0a1.07,1.07,0,0,1,.89.32,2.27,2.27,0,0,1,.22,1.22q0,4.8.08,5h2.1A22.52,22.52,0,0,1,80.23,125.93Zm-2.1-7.44a8.91,8.91,0,0,1-.07,1.34,1.08,1.08,0,0,1-.27.62.84.84,0,0,1-.59.18h-.84v-4h.71c.45,0,.75.12.87.35a3.66,3.66,0,0,1,.19,1.47Z"/><polygon class="cls-1" points="92.55 114.97 90.37 114.97 88.27 121.33 88.27 114.97 86.17 114.97 86.17 128.78 88.28 128.78 88.28 122.33 90.51 128.78 92.73 128.78 90.25 121.78 92.55 114.97"/><path class="cls-1" d="M19.21,78.08c-3.88-1.58-5.76-1.4-6.3-1.28C7.75,78.42,17,87.16,20.4,90.18a28.16,28.16,0,0,0,6.93,3.71l-.79-.26c5.71,2.12,7.57-.33,11.49-3.43a9,9,0,0,0,1.44-1.53c-2.9-1.55-5.63-3.08-8.16-4.49A125.13,125.13,0,0,0,19.21,78.08Z"/><polygon class="cls-1" points="50.55 65.57 50.54 65.58 50.55 65.58 50.55 65.57"/><path class="cls-1" d="M139.27,64.36C63.85,35.21,4,64.45,4,64.45a37.37,37.37,0,0,0,0,32c75.57,28.79,135.17,0,135.17,0C147.51,80.16,139.27,64.36,139.27,64.36ZM59.48,60.58l0-.08.06-.14A3.16,3.16,0,0,1,62.94,58h0a4,4,0,0,1,2.25,1l0,.07c.94,1,1.37,3-.06,6.77,1,1,3.33,3.17,3.79,3.49,0,0,1.44,1.43-.22,3.73a37.34,37.34,0,0,0-4.62,14.48c.05.82.59,4.7,5.94.05-4-9.54,6.7-23,6.7-23,1.33-2.59,3.7.76,3.7.76s7.68-3.19,3.92,7.61A32.76,32.76,0,0,1,74.22,87.8a6,6,0,0,0,1.32,1.7l.08.06a3.26,3.26,0,0,0,2.32.76h.25a5.78,5.78,0,0,0,.72-.09l.14,0a8.16,8.16,0,0,0,1.79-.63h0A10.63,10.63,0,0,0,84,87c-2.95-9.47,7-22.1,7-22.1,1.34-2.59,3.7.77,3.7.77s7.68-3.19,3.92,7.61A32.74,32.74,0,0,1,88.45,88.14a6,6,0,0,0,1.35,1.72c4.69,3.21,8.14-5,8.14-5s5.21-14.12,4.62-17.13c0,0-.47-1.72-2.27-.75a.81.81,0,0,1-.41-.85s4.1-5.61,7.45-1.59c0,0,1.87,1.68.27,5.74a36.74,36.74,0,0,0,3.87-4.53c.71-1.12,1.37-1.21,1.86-1a2.59,2.59,0,0,1,1.35.93c.51.54,1.06,1.64.56,3.92,0,0-2.67,10.75-3.59,15.52-.09.58-.15,1.26-.18,1.82a11,11,0,0,0,.17,1.93c.29,1.07.84,2,2,1.66,0,0,1-.54,2.64-3.77,0,0,.71-.25.67,1.8,0,0-1.8,5.07-5.15,5s-4.83-3.78-4.74-8.75,2.83-12.84,2.83-12.84a47.12,47.12,0,0,0-5.58,8.22c-.92,3.51-1.51,6.87-1.14,8.48a20.59,20.59,0,0,0,1.46,4.58l0,.05a1.07,1.07,0,0,1-.71.59h0a1.14,1.14,0,0,1-.52,0,4.82,4.82,0,0,1-2.3-1A5.62,5.62,0,0,1,99,90.3c-7.23,5.86-12.31,1.17-12.31,1.17a11.08,11.08,0,0,1-1.5-1.86c-7.45,6.4-12.73,1.52-12.73,1.52-.27-.26-.51-.54-.74-.82-.64.33-4.75,2.41-7.83,2.41-3.35,0-4.08-4.74-3.41-8S65.5,70.07,65.5,70.07l-1.62-1.29-.25.5a40,40,0,0,1-12.14,14.9s-2.45.52-1.35-.33c0,0,10.48-9.63,11.23-17.08,0,0-2.78-3.42-1.87-6.19ZM23.77,64.39c1.26-.88,2,1,2,1s1.23,5.71,1.41,5.93l-3.29-4.17S22.51,65.27,23.77,64.39ZM13,64.56c1.45-1.79,4.13-.45,4.13-.45,2.9,2.12,9.55,8.4,9.55,8.4A44.74,44.74,0,0,0,13.9,67.24S11.56,66.34,13,64.56Zm94.15,36.37C81.4,107.2,59.59,99,43,90.5l-.4.66s-5.68,8.2-15.73,6.75S8.54,88.31,7.54,80.39s3.41-8.13,3.41-8.13c2.26-.83,15.34.88,31.58,11.5,1.73-3.23,3.49-7.12,5-10.61-1.65,2.45-4.29,6.23-5.3,6.84-1.5.92-4.19.84-6.7-1.51s.17-9.63,3.93-15.82,7.37-3.06,7.37-3.06c2.59,1.63,1.64,5.55,1.64,5.55C47.31,67,46,64.79,46,64.79c-2.49,1.28-4.62,7.3-5.5,9.69s.42,2.85.42,2.85C43.7,78,50,65.54,51.21,63.15a.77.77,0,0,0-.52-.06c-2.09.12-1.19-1.9-1.19-1.9C53.64,58,55.76,63,55.76,63c-1.11,6.23-6.58,16.64-10.11,22.91,17.63,12.47,40.25,13.8,51.07,12.8s22.66-4.91,29.61-15.53-2.27-12.76-2.27-12.76c-5.47-1.4-6.42,5.53-6.14,7.48s-.65.63-.65.63c-3.11-5.9,2.1-11.4,2.1-11.4,6-5.36,12.22-1,14.57,3.52S139.47,93.06,107.16,100.93Z"/><path class="cls-1" d="M81.2,67.4c-6.05,7.9-7.8,13.19-7.81,16.68C87.09,67.34,81.2,67.4,81.2,67.4Z"/><path class="cls-1" d="M95.43,67.73c-6,7.9-7.8,13.19-7.81,16.68C101.32,67.68,95.43,67.73,95.43,67.73Z"/><path class="cls-1" d="M12.14,36.42V29.11c-5,0-5-3.46-5-3.46s-.67-4.19,2.9-4.19a2.92,2.92,0,0,1,3.07,3.46V44.46s-.28,4-3.35,4-3.29-3.85-3.29-3.85l-.06-7.87a8.88,8.88,0,0,1-5.47-5V48.14s.67,9.49,9.94,7.42,8.15-11.33,8.15-11.33.06-10.16,0-21-8.59-9.6-8.59-9.6S-1.58,15.94.59,28.27C2.37,38.34,12.14,36.42,12.14,36.42Z"/><path class="cls-1" d="M28.11,15.55s2.57-1.79,3.85,1,.89,6.81-3,8.15v8.43s3.7.39,4,2.9c.36,3.45,1,13.84,1,13.84L40,48.55,39.55,37s.11-5.66-3.85-8.5a16.27,16.27,0,0,0,2.57-15.05s-2-5.64-6.42-5.92-9.94,2.18-9.94,2.18v43l6.2-1.56Z"/><path class="cls-1" d="M63.13,45.63c9.21-1,8.9-8.87,8.9-8.87V20l-9.71.12v8.07l3.85-.09v4.8S66.45,38.1,63,38.1s-3.29-5.19-3.29-5.19-.08-15.91,0-17.33.67-4,3.43-4,3,4.19,3,4.19h5.93C72.13,8.47,71,3,62.71,3s-9.29,10.13-9.29,10.13,0,4.86.08,19.42S63.13,45.63,63.13,45.63Z"/><polygon class="cls-1" points="49.93 46.69 49.93 4.17 43.62 5.03 43.65 47.59 49.93 46.69"/><polygon class="cls-1" points="82.19 45.55 82.19 3.1 75.9 2.83 75.93 45.27 82.19 45.55"/><polygon class="cls-1" points="91.98 27.91 96.9 46.97 103.21 47.98 103.21 5.66 96.89 4.61 96.89 22.57 91.86 3.96 85.56 3.31 85.56 45.69 91.98 46.36 91.98 27.91"/><polygon class="cls-1" points="117.66 31.99 118.63 38.35 117.13 38.04 115.28 45.19 119.69 46.11 120.47 51.72 127.75 53.81 122.37 10 116.09 8.41 105.81 48.47 112.81 49.88 117.66 31.99"/><polygon class="cls-1" points="142.24 52.5 136.8 50.36 136.8 14.66 130.54 12.46 130.54 54.7 142.24 58.98 142.24 52.5"/><path class="cls-1" d="M39.45,137.58a.63.63,0,0,0,.31-.38,2.4,2.4,0,0,0,.09-.72v-.11a1.5,1.5,0,0,0-.22-.9,1,1,0,0,0-.8-.26H37.9v5.18h1a.87.87,0,0,0,.79-.34,2.11,2.11,0,0,0,.23-1.12v-.11Q39.93,137.77,39.45,137.58Zm-.95-1.88h.3a.56.56,0,0,1,.26,0c.12.06.18.27.18.61v.16a3.25,3.25,0,0,1,0,.56.36.36,0,0,1-.11.23.42.42,0,0,1-.25.06h-.34Zm.81,3.21a2.18,2.18,0,0,1-.09.77.34.34,0,0,1-.35.2h-.37v-2.06h.41a.32.32,0,0,1,.33.2,2.08,2.08,0,0,1,.08.7Z"/><path class="cls-1" d="M41.21,135.2l-.79,5.18H41l.14-1h.94l.15,1h.57l-.86-5.18Zm0,3.7.38-2.74h0L42,138.9Z"/><path class="cls-1" d="M44.34,137.2,44.2,137a1.52,1.52,0,0,1-.22-.28.92.92,0,0,1-.09-.47,1,1,0,0,1,.1-.48.34.34,0,0,1,.32-.16.31.31,0,0,1,.19.05.44.44,0,0,1,.12.23,2.78,2.78,0,0,1,.05.67V137h.58v-.31a4.41,4.41,0,0,0-.06-.79.81.81,0,0,0-.89-.72.87.87,0,0,0-.79.33,2,2,0,0,0-.16,1.34,2.12,2.12,0,0,0,.56.86l.34.34a1.42,1.42,0,0,1,.47,1c0,.18,0,.34,0,.48a.56.56,0,0,1-.1.32.38.38,0,0,1-.31.1.31.31,0,0,1-.31-.22,2.57,2.57,0,0,1-.08-.79v-.53h-.59v.53a3.1,3.1,0,0,0,.11.91,1,1,0,0,0,1.68.26,2.06,2.06,0,0,0,.21-1,2.1,2.1,0,0,0-.64-1.49Z"/><polygon class="cls-1" points="46.59 137.99 47.48 137.99 47.48 137.48 46.59 137.48 46.59 135.71 47.53 135.71 47.53 135.2 45.98 135.2 45.98 140.38 47.54 140.38 47.54 139.88 46.59 139.88 46.59 137.99"/><polygon class="cls-1" points="51.33 137.23 51.39 138.73 50.19 135.2 49.73 135.2 49.73 140.38 50.29 140.38 50.29 138.13 50.26 136.83 51.42 140.38 51.87 140.38 51.87 135.2 51.33 135.2 51.33 137.23"/><path class="cls-1" d="M53.27,135.2l-.79,5.18h.58l.14-1h.94l.15,1h.57L54,135.2Zm0,3.7.38-2.74h0l.41,2.74Z"/><path class="cls-1" d="M56.84,139c0,.1,0,.23,0,.4a.62.62,0,0,1-.1.37.36.36,0,0,1-.3.12.33.33,0,0,1-.28-.11.63.63,0,0,1-.09-.16,2.37,2.37,0,0,1,0-.62V135.2H55.4v3.85a1.89,1.89,0,0,0,.23,1.06.9.9,0,0,0,.79.33.89.89,0,0,0,.79-.33,1.92,1.92,0,0,0,.23-1.06V135.2h-.61Z"/><polygon class="cls-1" points="57.92 135.71 58.49 135.71 58.49 140.38 59.1 140.38 59.1 135.71 59.63 135.71 59.63 135.2 57.92 135.2 57.92 135.71"/><rect class="cls-1" x="60.19" y="135.2" width="0.61" height="5.18"/><path class="cls-1" d="M62.68,135.14a1,1,0,0,0-.73.26,1.76,1.76,0,0,0-.32,1.21v2.28a2.29,2.29,0,0,0,.22,1.16.83.83,0,0,0,.7.39l.68.74.3-.27-.45-.52a.73.73,0,0,0,.38-.31,2.32,2.32,0,0,0,.23-1.18v-2.28a2.86,2.86,0,0,0-.11-.9A.83.83,0,0,0,62.68,135.14Zm.39,3.76a2.62,2.62,0,0,1-.08.8.37.37,0,0,1-.67,0,2.57,2.57,0,0,1-.08-.8v-2.33a1.84,1.84,0,0,1,.1-.7.34.34,0,0,1,.33-.21.31.31,0,0,1,.32.21,2.22,2.22,0,0,1,.08.71Z"/><path class="cls-1" d="M65.88,139c0,.1,0,.23,0,.4a.62.62,0,0,1-.1.37.36.36,0,0,1-.3.12.33.33,0,0,1-.28-.11.63.63,0,0,1-.09-.16,2.38,2.38,0,0,1,0-.62V135.2h-.61v3.85a1.89,1.89,0,0,0,.23,1.06.9.9,0,0,0,.79.33.89.89,0,0,0,.79-.33,1.91,1.91,0,0,0,.23-1.06V135.2h-.61Z"/><polygon class="cls-1" points="67.91 137.99 68.8 137.99 68.8 137.48 67.91 137.48 67.91 135.71 68.85 135.71 68.85 135.2 67.3 135.2 67.3 140.38 68.86 140.38 68.86 139.88 67.91 139.88 67.91 137.99"/><path class="cls-1" d="M72.65,137.58a.63.63,0,0,0,.31-.38,2.43,2.43,0,0,0,.08-.72v-.11a1.51,1.51,0,0,0-.22-.9,1,1,0,0,0-.8-.26H71.1v5.18h1a.87.87,0,0,0,.79-.34,2.13,2.13,0,0,0,.23-1.12v-.11Q73.13,137.77,72.65,137.58Zm-.95-1.88H72a.56.56,0,0,1,.26,0c.12.06.18.27.18.61v.16a3.35,3.35,0,0,1,0,.56.37.37,0,0,1-.11.23.42.42,0,0,1-.25.06h-.34Zm.81,3.21a2.17,2.17,0,0,1-.09.77.34.34,0,0,1-.35.2h-.37v-2.06h.41a.32.32,0,0,1,.32.2,2.06,2.06,0,0,1,.08.7Z"/><polygon class="cls-1" points="74.46 137.99 75.35 137.99 75.35 137.48 74.46 137.48 74.46 135.71 75.4 135.71 75.4 135.2 73.85 135.2 73.85 140.38 75.41 140.38 75.41 139.88 74.46 139.88 74.46 137.99"/><path class="cls-1" d="M77,137.2,76.9,137a1.53,1.53,0,0,1-.22-.28.93.93,0,0,1-.09-.47,1,1,0,0,1,.1-.48.34.34,0,0,1,.32-.16.31.31,0,0,1,.19.05.44.44,0,0,1,.12.23,2.77,2.77,0,0,1,.05.67V137H78v-.31a4.39,4.39,0,0,0-.06-.79.81.81,0,0,0-.89-.72.87.87,0,0,0-.79.33,2,2,0,0,0-.15,1.34,2.12,2.12,0,0,0,.56.86L77,138a1.42,1.42,0,0,1,.47,1c0,.18,0,.34,0,.48a.55.55,0,0,1-.1.32.38.38,0,0,1-.31.1.3.3,0,0,1-.31-.22,2.54,2.54,0,0,1-.08-.79v-.53H76v.53a3.09,3.09,0,0,0,.11.91,1,1,0,0,0,1.68.26,2.05,2.05,0,0,0,.21-1,2.1,2.1,0,0,0-.64-1.49Z"/><path class="cls-1" d="M79.61,137.2l-.14-.15a1.52,1.52,0,0,1-.22-.28.92.92,0,0,1-.09-.47.94.94,0,0,1,.1-.48.34.34,0,0,1,.32-.16.31.31,0,0,1,.19.05.46.46,0,0,1,.12.23,2.79,2.79,0,0,1,.05.67V137h.58v-.31a4.4,4.4,0,0,0-.06-.79.81.81,0,0,0-.89-.72.86.86,0,0,0-.79.33,2,2,0,0,0-.15,1.34,2.11,2.11,0,0,0,.56.86l.34.34a1.42,1.42,0,0,1,.47,1c0,.18,0,.34,0,.48a.56.56,0,0,1-.1.32.38.38,0,0,1-.31.1.3.3,0,0,1-.31-.22,2.59,2.59,0,0,1-.08-.79v-.53H78.6v.53a3.09,3.09,0,0,0,.11.91,1,1,0,0,0,1.68.26,2.07,2.07,0,0,0,.21-1,2.1,2.1,0,0,0-.63-1.49Z"/><rect class="cls-1" x="81.3" y="135.2" width="0.61" height="5.18"/><polygon class="cls-1" points="84.16 134.91 84.16 134.59 83.07 134.02 83.07 134.64 84.16 134.91"/><polygon class="cls-1" points="83.42 137.99 84.31 137.99 84.31 137.48 83.42 137.48 83.42 135.71 84.36 135.71 84.36 135.2 82.81 135.2 82.81 140.38 84.36 140.38 84.36 139.88 83.42 139.88 83.42 137.99"/><path class="cls-1" d="M87.05,138.4a1.44,1.44,0,0,0-.14-.55.4.4,0,0,0-.29-.2.55.55,0,0,0,.37-.35,1.86,1.86,0,0,0,.1-.67c0-.27,0-.46,0-.59a1,1,0,0,0-.24-.65,1,1,0,0,0-.67-.19H85.08v5.18h.61v-2.5l.36,0a.51.51,0,0,1,.33.09c.07.06.11.27.11.64a13.72,13.72,0,0,0,0,1.75h.61a4.11,4.11,0,0,1,0-.86Q87.09,138.78,87.05,138.4Zm-.57-1.9a3.7,3.7,0,0,1,0,.6.43.43,0,0,1-.12.26.41.41,0,0,1-.26.07h-.39v-1.75h.38a.47.47,0,0,1,.31.09q.11.1.11.69Z"/><polygon class="cls-1" points="88.49 137.99 89.38 137.99 89.38 137.48 88.49 137.48 88.49 135.71 89.43 135.71 89.43 135.2 87.88 135.2 87.88 140.38 89.44 140.38 89.44 139.88 88.49 139.88 88.49 137.99"/><path class="cls-1" d="M91.07,137.2l-.14-.15a1.53,1.53,0,0,1-.22-.28.93.93,0,0,1-.09-.47,1,1,0,0,1,.1-.48.34.34,0,0,1,.32-.16.31.31,0,0,1,.19.05.44.44,0,0,1,.12.23,2.79,2.79,0,0,1,.05.67V137H92v-.31a4.39,4.39,0,0,0-.06-.79.81.81,0,0,0-.89-.72.87.87,0,0,0-.79.33,2,2,0,0,0-.15,1.34,2.1,2.1,0,0,0,.56.86L91,138a1.42,1.42,0,0,1,.47,1c0,.18,0,.34,0,.48a.56.56,0,0,1-.1.32.38.38,0,0,1-.31.1.31.31,0,0,1-.31-.22,2.6,2.6,0,0,1-.08-.79v-.53h-.59v.53a3.1,3.1,0,0,0,.11.91,1,1,0,0,0,1.68.26,2.07,2.07,0,0,0,.21-1,2.1,2.1,0,0,0-.64-1.49Z"/><path class="cls-1" d="M95.61,137.65q.52-.2.52-1.16a1.73,1.73,0,0,0-.25-1,.9.9,0,0,0-.78-.34.85.85,0,0,0-.76.33,1.83,1.83,0,0,0-.23,1v.13h.6v-.12a1.65,1.65,0,0,1,.09-.66.31.31,0,0,1,.29-.18.37.37,0,0,1,.32.16,1.31,1.31,0,0,1,.11.68v0c0,.46-.07.74-.23.83a.62.62,0,0,1-.33.07h-.16v.49H95a.45.45,0,0,1,.43.23,1.81,1.81,0,0,1,.12.79,2.34,2.34,0,0,1-.09.78.34.34,0,0,1-.35.22.32.32,0,0,1-.33-.19,2.4,2.4,0,0,1-.07-.74v-.24h-.59V139a2.09,2.09,0,0,0,.22,1.1.84.84,0,0,0,.77.35.89.89,0,0,0,.79-.37,2,2,0,0,0,.25-1.12Q96.14,137.9,95.61,137.65Z"/><path class="cls-1" d="M97.06,135.64a1,1,0,0,1-.48.2v.42a1.08,1.08,0,0,0,.36-.07.66.66,0,0,0,.28-.19v4.37h.61V135.2H97.4A1.05,1.05,0,0,1,97.06,135.64Z"/><path class="cls-1" d="M99.91,137.14a.75.75,0,0,0-.64.25v-.72a2.56,2.56,0,0,1,.08-.8.3.3,0,0,1,.3-.2.35.35,0,0,1,.31.12,2.07,2.07,0,0,1,.09.82v.1h.59v-.18a2.22,2.22,0,0,0-.2-1.07.8.8,0,0,0-.75-.32.88.88,0,0,0-.79.35,2.21,2.21,0,0,0-.24,1.19v2.18a3,3,0,0,0,.12,1,.89.89,0,0,0,.94.62.88.88,0,0,0,.82-.35,2.09,2.09,0,0,0,.22-1.06v-.32a2.64,2.64,0,0,0-.2-1.21A.69.69,0,0,0,99.91,137.14Zm.26,1.95q0,.63-.17.76a.42.42,0,0,1-.26.07.36.36,0,0,1-.37-.22,2,2,0,0,1-.1-.74v-1.1a.39.39,0,0,1,.17-.14.65.65,0,0,1,.3-.07.33.33,0,0,1,.33.22,2.64,2.64,0,0,1,.09.81Z"/><path class="cls-1" d="M102.53,137.14a.75.75,0,0,0-.64.25v-.72a2.55,2.55,0,0,1,.08-.8.3.3,0,0,1,.3-.2.35.35,0,0,1,.31.12,2.06,2.06,0,0,1,.09.82v.1h.59v-.18a2.22,2.22,0,0,0-.2-1.07.8.8,0,0,0-.75-.32.88.88,0,0,0-.79.35,2.21,2.21,0,0,0-.24,1.19v2.18a3,3,0,0,0,.12,1,.89.89,0,0,0,.94.62.88.88,0,0,0,.82-.35,2.09,2.09,0,0,0,.22-1.06v-.32a2.62,2.62,0,0,0-.2-1.21A.69.69,0,0,0,102.53,137.14Zm.26,1.95q0,.63-.17.76a.42.42,0,0,1-.26.07.36.36,0,0,1-.37-.22,2,2,0,0,1-.1-.74v-1.1a.39.39,0,0,1,.17-.14.65.65,0,0,1,.3-.07.33.33,0,0,1,.33.22,2.64,2.64,0,0,1,.09.81Z"/><path class="cls-1" d="M104.93,135.14a.9.9,0,0,0-.82.34,1.94,1.94,0,0,0-.22,1V139a2.23,2.23,0,0,0,.21,1.09,1.12,1.12,0,0,0,1.66,0A2.22,2.22,0,0,0,106,139v-2.48a1.91,1.91,0,0,0-.22-1A.91.91,0,0,0,104.93,135.14Zm.44,3.86v0c0,.46-.06.74-.19.84a.24.24,0,0,1-.12.06h-.18a.33.33,0,0,1-.21-.07q-.17-.14-.17-.83v-2.55a1.64,1.64,0,0,1,.07-.57.36.36,0,0,1,.16-.21.47.47,0,0,1,.18,0h.14q.32.06.32.81Z"/></g></svg>